<svg width="68" height="68" viewBox="0 0 68 68" fill="none" xmlns="http://www.w3.org/2000/svg">
<title>別窓で開く</title>
<path d="M41.5 2H2V65.5H66V27.5" stroke="black" stroke-width="4"/>
<path d="M68 2C68 0.895429 67.1046 -1.54946e-06 66 -2.05523e-06L48 -4.53646e-07C46.8954 -1.128e-06 46 0.89543 46 2C46 3.10457 46.8954 4 48 4L64 4L64 20C64 21.1046 64.8954 22 66 22C67.1046 22 68 21.1046 68 20L68 2ZM32 36L33.4142 37.4142L67.4142 3.41421L66 2L64.5858 0.585785L30.5858 34.5858L32 36Z" fill="black"/>
</svg>
